<mxfile host="Electron" agent="Mozilla/5.0 (Windows NT 10.0; Win64; x64) AppleWebKit/537.36 (KHTML, like Gecko) draw.io/22.0.3 Chrome/114.0.5735.289 Electron/25.8.4 Safari/537.36" modified="2024-12-11T12:54:37.696Z" etag="FBZTOT-dl_8Ntah74rVw" version="22.0.3" type="device">
  <diagram name="RoutingChart" id="pZm5Y59gOgLLR5g-zRpm">
    <mxGraphModel dx="3297" dy="3967" grid="0" gridSize="10" guides="1" tooltips="1" connect="1" arrows="1" fold="1" page="1" pageScale="1" pageWidth="2336" pageHeight="1654" background="#FFFFFF" math="0" shadow="0">
      <root>
        <mxCell id="PHRRr8yhrGrFgZKM-X4D-0" />
        <mxCell id="PHRRr8yhrGrFgZKM-X4D-1" parent="PHRRr8yhrGrFgZKM-X4D-0" />
        <mxCell id="PHRRr8yhrGrFgZKM-X4D-41" style="edgeStyle=orthogonalEdgeStyle;curved=1;rounded=0;orthogonalLoop=1;jettySize=auto;html=1;entryX=0.5;entryY=0;entryDx=0;entryDy=0;strokeColor=#B266FF;strokeWidth=2;" parent="PHRRr8yhrGrFgZKM-X4D-1" source="PHRRr8yhrGrFgZKM-X4D-7" target="PHRRr8yhrGrFgZKM-X4D-70" edge="1">
          <mxGeometry relative="1" as="geometry">
            <Array as="points">
              <mxPoint x="1071" y="-1076" />
              <mxPoint x="1071" y="-1437" />
              <mxPoint x="961" y="-1437" />
              <mxPoint x="961" y="-1127" />
              <mxPoint x="431" y="-1127" />
              <mxPoint x="431" y="-1187" />
              <mxPoint x="258" y="-1187" />
              <mxPoint x="258" y="-1048" />
            </Array>
            <mxPoint x="831" y="-1056.5" as="targetPoint" />
          </mxGeometry>
        </mxCell>
        <mxCell id="PHRRr8yhrGrFgZKM-X4D-43" value="&lt;font color=&quot;#000000&quot;&gt;Connection&lt;br&gt;&lt;i&gt;(on-premises DC)&lt;/i&gt;&lt;br&gt;&lt;/font&gt;" style="image;aspect=fixed;html=1;points=[];align=left;fontSize=12;image=img/lib/azure2/networking/Connections.svg;labelPosition=right;verticalLabelPosition=middle;verticalAlign=middle;labelBackgroundColor=none;spacingLeft=3;" parent="PHRRr8yhrGrFgZKM-X4D-1" vertex="1">
          <mxGeometry x="1031" y="-1416" width="68" height="68" as="geometry" />
        </mxCell>
        <mxCell id="PHRRr8yhrGrFgZKM-X4D-44" value="Peering" style="edgeStyle=orthogonalEdgeStyle;rounded=0;orthogonalLoop=1;jettySize=auto;html=1;startArrow=classic;startFill=1;labelPosition=center;verticalLabelPosition=bottom;align=center;verticalAlign=top;dashed=1;strokeColor=#000000;labelBackgroundColor=none;fontColor=#000000;strokeWidth=2;entryX=1.007;entryY=0.835;entryDx=0;entryDy=0;entryPerimeter=0;exitX=-0.005;exitY=0.381;exitDx=0;exitDy=0;exitPerimeter=0;" parent="PHRRr8yhrGrFgZKM-X4D-1" source="PHRRr8yhrGrFgZKM-X4D-56" target="PHRRr8yhrGrFgZKM-X4D-3" edge="1">
          <mxGeometry relative="1" as="geometry">
            <mxPoint x="1855" y="-687" as="sourcePoint" />
            <mxPoint x="1725" y="-687" as="targetPoint" />
          </mxGeometry>
        </mxCell>
        <mxCell id="PHRRr8yhrGrFgZKM-X4D-45" value="Peering" style="edgeStyle=orthogonalEdgeStyle;rounded=0;orthogonalLoop=1;jettySize=auto;html=1;exitX=0.002;exitY=0.674;exitDx=0;exitDy=0;entryX=1.009;entryY=0.342;entryDx=0;entryDy=0;entryPerimeter=0;startArrow=classic;startFill=1;dashed=1;labelPosition=center;verticalLabelPosition=bottom;align=center;verticalAlign=top;strokeColor=#000000;labelBackgroundColor=none;fontColor=#000000;strokeWidth=2;exitPerimeter=0;" parent="PHRRr8yhrGrFgZKM-X4D-1" source="PHRRr8yhrGrFgZKM-X4D-76" target="PHRRr8yhrGrFgZKM-X4D-3" edge="1">
          <mxGeometry relative="1" as="geometry">
            <mxPoint x="1855.9" y="-1017.36" as="sourcePoint" />
            <mxPoint x="1716" y="-1017.16" as="targetPoint" />
          </mxGeometry>
        </mxCell>
        <mxCell id="PHRRr8yhrGrFgZKM-X4D-46" value="Internet" style="shape=image;verticalLabelPosition=bottom;labelBackgroundColor=default;verticalAlign=top;aspect=fixed;imageAspect=0;image=https://icons.veryicon.com/png/o/miscellaneous/base-icon-library-1/internet-54.png;labelPosition=center;align=center;spacingLeft=3;" parent="PHRRr8yhrGrFgZKM-X4D-1" vertex="1">
          <mxGeometry x="1047" y="-623" width="70" height="70" as="geometry" />
        </mxCell>
        <mxCell id="PHRRr8yhrGrFgZKM-X4D-47" value="&lt;ul&gt;&lt;li&gt;&lt;span style=&quot;background-color: initial;&quot;&gt;Route Table:&amp;nbsp;&amp;nbsp;&lt;span style=&quot;white-space: pre;&quot;&gt;&#x9;&lt;span style=&quot;white-space: pre;&quot;&gt;&#x9;&lt;/span&gt;&lt;span style=&quot;white-space: pre;&quot;&gt;&#x9;&lt;/span&gt;&lt;span style=&quot;white-space: pre;&quot;&gt;&#x9;&lt;/span&gt;&lt;/span&gt;&lt;/span&gt;&lt;b style=&quot;background-color: initial;&quot;&gt;udr-connectivity-gwc&lt;/b&gt;&lt;br&gt;&lt;/li&gt;&lt;li&gt;&lt;span style=&quot;background-color: initial;&quot;&gt;Propagate Gateway Routes:&amp;nbsp;&lt;span style=&quot;white-space: pre;&quot;&gt;&#x9;&lt;/span&gt;&lt;/span&gt;&lt;b style=&quot;background-color: initial;&quot;&gt;&lt;font color=&quot;#00cc00&quot;&gt;Yes&lt;/font&gt;&lt;/b&gt;&lt;/li&gt;&lt;/ul&gt;&lt;div style=&quot;text-align: center;&quot;&gt;----------------------------&lt;/div&gt;&lt;ul&gt;&lt;li&gt;&lt;span style=&quot;background-color: initial;&quot;&gt;User-Defined Route:&amp;nbsp;&amp;nbsp;&lt;span style=&quot;white-space: pre;&quot;&gt;&#x9;&lt;/span&gt;&lt;/span&gt;&lt;b style=&quot;background-color: initial; border-color: var(--border-color);&quot;&gt;send-spoke-gwc-1-to-fw&lt;/b&gt;&lt;br&gt;&lt;/li&gt;&lt;li&gt;Address Prefix:&lt;b&gt;&amp;nbsp;&lt;span style=&quot;white-space: pre;&quot;&gt;&#x9;&lt;span style=&quot;white-space: pre;&quot;&gt;&#x9;&lt;/span&gt;&lt;/span&gt;&lt;font color=&quot;#33001a&quot;&gt;172.28.24.0/21&lt;/font&gt;&lt;/b&gt;&lt;/li&gt;&lt;li&gt;Next Hop Type:&lt;b&gt;&amp;nbsp;&lt;span style=&quot;white-space: pre;&quot;&gt;&#x9;&lt;span style=&quot;white-space: pre;&quot;&gt;&#x9;&lt;/span&gt;&lt;/span&gt;Virtual Appliance&lt;/b&gt;&lt;/li&gt;&lt;li&gt;Next Hop IP Address:&lt;b&gt;&amp;nbsp;&lt;span style=&quot;white-space: pre;&quot;&gt;&#x9;&lt;/span&gt;&lt;/b&gt;&lt;b style=&quot;border-color: var(--border-color);&quot;&gt;172.28.0.68&lt;/b&gt;&lt;/li&gt;&lt;/ul&gt;&lt;div&gt;&lt;b&gt;&lt;br&gt;&lt;/b&gt;&lt;/div&gt;&lt;ul&gt;&lt;li&gt;&lt;b style=&quot;border-color: var(--border-color);&quot;&gt;&lt;span style=&quot;font-weight: 400;&quot;&gt;User-Defined Route:&amp;nbsp;&lt;span style=&quot;white-space: pre;&quot;&gt;&#x9;&lt;/span&gt;&lt;/span&gt;&lt;b style=&quot;border-color: var(--border-color);&quot;&gt;send-spoke-gwc-2-to-fw&lt;/b&gt;&lt;/b&gt;&lt;/li&gt;&lt;li&gt;&lt;b style=&quot;border-color: var(--border-color);&quot;&gt;&lt;span style=&quot;font-weight: 400;&quot;&gt;Address Prefix:&lt;/span&gt;&lt;b&gt;&amp;nbsp;&lt;span style=&quot;white-space: pre;&quot;&gt;&#x9;&lt;/span&gt;&lt;span style=&quot;white-space: pre;&quot;&gt;&#x9;&lt;/span&gt;&lt;font color=&quot;#33001a&quot;&gt;172.28.32.0/21&lt;/font&gt;&lt;/b&gt;&lt;/b&gt;&lt;/li&gt;&lt;li&gt;&lt;b style=&quot;border-color: var(--border-color);&quot;&gt;&lt;span style=&quot;font-weight: 400;&quot;&gt;Next Hop Type:&lt;/span&gt;&lt;b&gt;&amp;nbsp;&lt;span style=&quot;white-space: pre;&quot;&gt;&#x9;&lt;/span&gt;&lt;span style=&quot;white-space: pre;&quot;&gt;&#x9;&lt;/span&gt;Virtual Appliance&lt;/b&gt;&lt;/b&gt;&lt;/li&gt;&lt;li&gt;&lt;b style=&quot;border-color: var(--border-color);&quot;&gt;&lt;span style=&quot;font-weight: 400;&quot;&gt;Next Hop IP Address:&lt;/span&gt;&lt;b&gt;&amp;nbsp;&lt;span style=&quot;white-space: pre;&quot;&gt;&#x9;&lt;/span&gt;&lt;/b&gt;&lt;b style=&quot;background-color: initial; border-color: var(--border-color);&quot;&gt;172.28.0.68&lt;/b&gt;&lt;/b&gt;&lt;/li&gt;&lt;/ul&gt;&lt;div&gt;&lt;b&gt;&lt;br&gt;&lt;/b&gt;&lt;/div&gt;&lt;ul&gt;&lt;li&gt;&lt;b style=&quot;border-color: var(--border-color);&quot;&gt;&lt;span style=&quot;font-weight: 400;&quot;&gt;User-Defined Route:&lt;span style=&quot;white-space: pre;&quot;&gt;&#x9;&lt;/span&gt;&lt;/span&gt;&lt;b style=&quot;border-color: var(--border-color);&quot;&gt;send-spoke-gwc-3-to-fw&lt;/b&gt;&lt;/b&gt;&lt;/li&gt;&lt;li&gt;&lt;b style=&quot;border-color: var(--border-color);&quot;&gt;&lt;span style=&quot;font-weight: 400;&quot;&gt;Address Prefix:&lt;/span&gt;&lt;b&gt;&amp;nbsp;&lt;span style=&quot;white-space: pre;&quot;&gt;&#x9;&lt;/span&gt;&lt;span style=&quot;white-space: pre;&quot;&gt;&#x9;&lt;/span&gt;&lt;font color=&quot;#33001a&quot;&gt;172.28.40.0/21&lt;/font&gt;&lt;/b&gt;&lt;/b&gt;&lt;/li&gt;&lt;li&gt;&lt;b style=&quot;border-color: var(--border-color);&quot;&gt;&lt;span style=&quot;font-weight: 400;&quot;&gt;Next Hop Type:&lt;/span&gt;&lt;b&gt;&amp;nbsp;&lt;span style=&quot;white-space: pre;&quot;&gt;&#x9;&lt;/span&gt;&lt;span style=&quot;white-space: pre;&quot;&gt;&#x9;&lt;/span&gt;Virtual Appliance&lt;/b&gt;&lt;/b&gt;&lt;/li&gt;&lt;li&gt;&lt;b style=&quot;border-color: var(--border-color);&quot;&gt;&lt;span style=&quot;font-weight: 400;&quot;&gt;Next Hop IP Address:&lt;/span&gt;&lt;b&gt;&amp;nbsp;&lt;span style=&quot;white-space: pre;&quot;&gt;&#x9;&lt;/span&gt;&lt;/b&gt;&lt;/b&gt;&lt;b style=&quot;background-color: initial; border-color: var(--border-color);&quot;&gt;172.28.0.68&lt;/b&gt;&lt;/li&gt;&lt;/ul&gt;" style="rounded=0;whiteSpace=wrap;html=1;align=left;verticalAlign=top;" parent="PHRRr8yhrGrFgZKM-X4D-1" vertex="1">
          <mxGeometry x="1580" y="-1619" width="414.5" height="365" as="geometry" />
        </mxCell>
        <mxCell id="PHRRr8yhrGrFgZKM-X4D-48" value="" style="edgeStyle=orthogonalEdgeStyle;rounded=0;orthogonalLoop=1;jettySize=auto;html=1;entryX=0.25;entryY=1;entryDx=0;entryDy=0;strokeColor=#006EAF;strokeWidth=2;fontColor=#006EAF;fontStyle=1;endArrow=none;endFill=0;dashed=1;" parent="PHRRr8yhrGrFgZKM-X4D-1" source="PHRRr8yhrGrFgZKM-X4D-8" target="PHRRr8yhrGrFgZKM-X4D-47" edge="1">
          <mxGeometry x="0.5542" relative="1" as="geometry">
            <mxPoint x="1730.9999999999993" y="-1064.997341772152" as="sourcePoint" />
            <mxPoint x="1815.7599999999995" y="-1247" as="targetPoint" />
            <mxPoint as="offset" />
          </mxGeometry>
        </mxCell>
        <mxCell id="PHRRr8yhrGrFgZKM-X4D-49" value="Local Network Gateway&lt;br&gt;&lt;i&gt;(on-premises)&lt;/i&gt;" style="image;aspect=fixed;html=1;points=[];align=left;fontSize=12;image=img/lib/azure2/networking/Local_Network_Gateways.svg;labelPosition=right;verticalLabelPosition=middle;verticalAlign=middle;spacingLeft=3;spacingRight=12;" parent="PHRRr8yhrGrFgZKM-X4D-1" vertex="1">
          <mxGeometry x="1038" y="-1267" width="68" height="68" as="geometry" />
        </mxCell>
        <mxCell id="PHRRr8yhrGrFgZKM-X4D-54" value="&lt;ul&gt;&lt;li&gt;&lt;span style=&quot;background-color: initial;&quot;&gt;Route Table: &lt;span style=&quot;white-space: pre;&quot;&gt;&#x9;&lt;span style=&quot;white-space: pre;&quot;&gt;&#x9;&lt;/span&gt;&lt;span style=&quot;white-space: pre;&quot;&gt;&#x9;&lt;/span&gt;&lt;span style=&quot;white-space: pre;&quot;&gt;&#x9;&lt;/span&gt;&lt;/span&gt;&lt;/span&gt;&lt;b style=&quot;background-color: initial;&quot;&gt;udr-crm-gwc&lt;/b&gt;&lt;br&gt;&lt;/li&gt;&lt;li&gt;&lt;span style=&quot;background-color: initial;&quot;&gt;Propagate Gateway Routes: &lt;span style=&quot;white-space: pre;&quot;&gt;&#x9;&lt;/span&gt;&lt;/span&gt;&lt;b style=&quot;background-color: initial;&quot;&gt;&lt;font color=&quot;#ff0000&quot;&gt;No&lt;/font&gt;&lt;/b&gt;&lt;br&gt;&lt;/li&gt;&lt;/ul&gt;&lt;div style=&quot;text-align: center;&quot;&gt;----------------&lt;/div&gt;&lt;ul&gt;&lt;li&gt;&lt;span style=&quot;background-color: initial;&quot;&gt;User-Defined Route:&amp;nbsp;&lt;span style=&quot;white-space: pre;&quot;&gt;&#x9;&lt;/span&gt;&lt;/span&gt;&lt;b style=&quot;background-color: initial; border-color: var(--border-color);&quot;&gt;send-all-to-fw&lt;/b&gt;&lt;/li&gt;&lt;li&gt;Address Prefix:&lt;b&gt; &lt;span style=&quot;white-space: pre;&quot;&gt;&#x9;&lt;span style=&quot;white-space: pre;&quot;&gt;&#x9;&lt;/span&gt;&lt;/span&gt;0.0.0.0/0&lt;/b&gt;&lt;/li&gt;&lt;li&gt;Next Hop Type:&lt;b&gt; &lt;span style=&quot;white-space: pre;&quot;&gt;&#x9;&lt;span style=&quot;white-space: pre;&quot;&gt;&#x9;&lt;/span&gt;&lt;/span&gt;Virtual Appliance&lt;/b&gt;&lt;/li&gt;&lt;li&gt;Next Hop IP Address:&lt;b&gt;&amp;nbsp;&lt;span style=&quot;white-space: pre;&quot;&gt;&#x9;&lt;/span&gt;&lt;/b&gt;&lt;b style=&quot;border-color: var(--border-color);&quot;&gt;172.28.0.68&lt;/b&gt;&lt;/li&gt;&lt;/ul&gt;" style="rounded=0;whiteSpace=wrap;html=1;align=left;verticalAlign=top;" parent="PHRRr8yhrGrFgZKM-X4D-1" vertex="1">
          <mxGeometry x="2575" y="-621" width="340" height="159" as="geometry" />
        </mxCell>
        <mxCell id="PHRRr8yhrGrFgZKM-X4D-55" value="&lt;div style=&quot;text-align: left;&quot;&gt;&lt;ul&gt;&lt;li&gt;&lt;span style=&quot;background-color: initial;&quot;&gt;Route Table: &lt;span style=&quot;white-space: pre;&quot;&gt;&#x9;&lt;span style=&quot;white-space: pre;&quot;&gt;&#x9;&lt;/span&gt;&lt;span style=&quot;white-space: pre;&quot;&gt;&#x9;&lt;/span&gt;&lt;span style=&quot;white-space: pre;&quot;&gt;&#x9;&lt;/span&gt;&lt;/span&gt;&lt;/span&gt;&lt;b style=&quot;background-color: initial;&quot;&gt;udr-hub-gwc-firewall&lt;/b&gt;&lt;/li&gt;&lt;li&gt;&lt;span style=&quot;background-color: initial;&quot;&gt;Propagate Gateway Routes:&lt;span style=&quot;white-space: pre;&quot;&gt;&#x9;&lt;/span&gt;&lt;/span&gt;&lt;b style=&quot;background-color: initial;&quot;&gt;&lt;font color=&quot;#00cc00&quot;&gt;Yes&lt;/font&gt;&lt;/b&gt;&lt;/li&gt;&lt;/ul&gt;&lt;/div&gt;&lt;div&gt;----------------------------&lt;/div&gt;&lt;div&gt;&lt;div style=&quot;text-align: left;&quot;&gt;&lt;ul&gt;&lt;li&gt;&lt;span style=&quot;background-color: initial;&quot;&gt;User-Defined Route:&lt;span style=&quot;white-space: pre;&quot;&gt;&#x9;&lt;/span&gt;&lt;/span&gt;&lt;b style=&quot;background-color: initial; border-color: var(--border-color);&quot;&gt;&lt;font&gt;send-all-to-internet&lt;/font&gt;&lt;/b&gt;&lt;/li&gt;&lt;li&gt;&lt;span style=&quot;background-color: initial;&quot;&gt;Address Prefix:&lt;/span&gt;&lt;b style=&quot;background-color: initial;&quot;&gt;&amp;nbsp;&lt;span style=&quot;white-space: pre;&quot;&gt;&#x9;&lt;span style=&quot;white-space: pre;&quot;&gt;&#x9;&lt;/span&gt;&lt;/span&gt;0.0.0.0/0&lt;/b&gt;&lt;/li&gt;&lt;li&gt;&lt;span style=&quot;background-color: initial;&quot;&gt;Next Hop Type:&lt;/span&gt;&lt;b style=&quot;background-color: initial;&quot;&gt;&amp;nbsp;&lt;span style=&quot;white-space: pre;&quot;&gt;&#x9;&lt;span style=&quot;white-space: pre;&quot;&gt;&#x9;&lt;/span&gt;&lt;/span&gt;Internet&lt;/b&gt;&lt;/li&gt;&lt;/ul&gt;&lt;div&gt;&lt;b&gt;&lt;br&gt;&lt;/b&gt;&lt;/div&gt;&lt;ul&gt;&lt;li&gt;&lt;span style=&quot;background-color: initial;&quot;&gt;User-Defined Route:&amp;nbsp;&lt;span style=&quot;white-space: pre;&quot;&gt;&#x9;&lt;/span&gt;&lt;/span&gt;&lt;b style=&quot;background-color: initial; border-color: var(--border-color);&quot;&gt;send-spoke-&lt;/b&gt;&lt;b style=&quot;background-color: initial; border-color: var(--border-color);&quot;&gt;&lt;b style=&quot;border-color: var(--border-color);&quot;&gt;&lt;u&gt;&lt;font&gt;gn&lt;/font&gt;&lt;/u&gt;&lt;font&gt;-&lt;/font&gt;&lt;/b&gt;&lt;/b&gt;&lt;b style=&quot;background-color: initial; border-color: var(--border-color);&quot;&gt;1-to-fw&lt;/b&gt;&lt;br&gt;&lt;/li&gt;&lt;li&gt;&lt;span style=&quot;background-color: initial;&quot;&gt;Address Prefix:&lt;/span&gt;&lt;b style=&quot;background-color: initial;&quot;&gt;&amp;nbsp;&lt;span style=&quot;white-space: pre;&quot;&gt;&#x9;&lt;span style=&quot;white-space: pre;&quot;&gt;&#x9;&lt;/span&gt;&lt;/span&gt;&lt;font&gt;172.28.24.0/21&lt;/font&gt;&lt;/b&gt;&lt;/li&gt;&lt;li&gt;&lt;span style=&quot;background-color: initial;&quot;&gt;Next Hop Type:&lt;/span&gt;&lt;b style=&quot;background-color: initial;&quot;&gt;&amp;nbsp;&lt;span style=&quot;white-space: pre;&quot;&gt;&#x9;&lt;span style=&quot;white-space: pre;&quot;&gt;&#x9;&lt;/span&gt;&lt;/span&gt;Virtual Appliance&lt;/b&gt;&lt;/li&gt;&lt;li&gt;&lt;span style=&quot;background-color: initial;&quot;&gt;Next Hop IP Address:&lt;/span&gt;&lt;b style=&quot;background-color: initial;&quot;&gt;&amp;nbsp;&lt;span style=&quot;white-space: pre;&quot;&gt;&#x9;&lt;/span&gt;&lt;/b&gt;&lt;b style=&quot;background-color: initial; border-color: var(--border-color);&quot;&gt;&lt;b style=&quot;background-color: initial; border-color: var(--border-color);&quot;&gt;172.28.&lt;u&gt;10&lt;/u&gt;.68&lt;/b&gt;&lt;/b&gt;&lt;/li&gt;&lt;/ul&gt;&lt;div&gt;&lt;b&gt;&lt;br&gt;&lt;/b&gt;&lt;/div&gt;&lt;ul&gt;&lt;li&gt;&lt;b style=&quot;border-color: var(--border-color);&quot;&gt;&lt;span style=&quot;font-weight: 400;&quot;&gt;User-Defined Route:&amp;nbsp;&lt;span style=&quot;white-space: pre;&quot;&gt;&#x9;&lt;/span&gt;&lt;/span&gt;&lt;b style=&quot;border-color: var(--border-color);&quot;&gt;send-spoke&lt;/b&gt;&lt;/b&gt;&lt;b style=&quot;background-color: initial; border-color: var(--border-color);&quot;&gt;&lt;b style=&quot;border-color: var(--border-color);&quot;&gt;&lt;font&gt;-&lt;/font&gt;&lt;u&gt;&lt;font&gt;gn&lt;/font&gt;&lt;/u&gt;&lt;font&gt;-&lt;/font&gt;&lt;/b&gt;&lt;/b&gt;&lt;b style=&quot;background-color: initial; border-color: var(--border-color);&quot;&gt;&lt;b style=&quot;border-color: var(--border-color);&quot;&gt;2-to-fw&lt;/b&gt;&lt;/b&gt;&lt;/li&gt;&lt;li&gt;&lt;b style=&quot;background-color: initial; border-color: var(--border-color);&quot;&gt;&lt;span style=&quot;font-weight: 400;&quot;&gt;Address Prefix:&lt;/span&gt;&lt;b&gt;&amp;nbsp;&lt;span style=&quot;white-space: pre;&quot;&gt;&#x9;&lt;/span&gt;&lt;span style=&quot;white-space: pre;&quot;&gt;&#x9;&lt;/span&gt;&lt;font&gt;172.28.32.0/21&lt;/font&gt;&lt;/b&gt;&lt;/b&gt;&lt;/li&gt;&lt;li&gt;&lt;b style=&quot;background-color: initial; border-color: var(--border-color);&quot;&gt;&lt;span style=&quot;font-weight: 400;&quot;&gt;Next Hop Type:&lt;/span&gt;&lt;b&gt;&amp;nbsp;&lt;span style=&quot;white-space: pre;&quot;&gt;&#x9;&lt;/span&gt;&lt;span style=&quot;white-space: pre;&quot;&gt;&#x9;&lt;/span&gt;Virtual Appliance&lt;/b&gt;&lt;/b&gt;&lt;/li&gt;&lt;li&gt;&lt;b style=&quot;background-color: initial; border-color: var(--border-color);&quot;&gt;&lt;span style=&quot;font-weight: 400;&quot;&gt;Next Hop IP Address:&lt;/span&gt;&lt;b&gt;&amp;nbsp;&lt;span style=&quot;white-space: pre;&quot;&gt;&#x9;&lt;/span&gt;&lt;/b&gt;&lt;b style=&quot;background-color: initial; border-color: var(--border-color);&quot;&gt;&lt;b style=&quot;background-color: initial; border-color: var(--border-color);&quot;&gt;172.28.&lt;u&gt;10&lt;/u&gt;.68&lt;/b&gt;&lt;/b&gt;&lt;/b&gt;&lt;/li&gt;&lt;/ul&gt;&lt;div&gt;&lt;b&gt;&lt;br&gt;&lt;/b&gt;&lt;/div&gt;&lt;ul&gt;&lt;li&gt;&lt;b style=&quot;border-color: var(--border-color);&quot;&gt;&lt;span style=&quot;font-weight: 400;&quot;&gt;User-Defined Route:&amp;nbsp;&lt;span style=&quot;white-space: pre;&quot;&gt;&#x9;&lt;/span&gt;&lt;/span&gt;&lt;b style=&quot;border-color: var(--border-color);&quot;&gt;send-spoke&lt;/b&gt;&lt;/b&gt;&lt;b style=&quot;background-color: initial; border-color: var(--border-color);&quot;&gt;&lt;b style=&quot;border-color: var(--border-color);&quot;&gt;&lt;font&gt;-&lt;/font&gt;&lt;u&gt;&lt;font&gt;gn&lt;/font&gt;&lt;/u&gt;&lt;font&gt;-3&lt;/font&gt;&lt;/b&gt;&lt;/b&gt;&lt;b style=&quot;background-color: initial; border-color: var(--border-color);&quot;&gt;&lt;b style=&quot;border-color: var(--border-color);&quot;&gt;-to-fw&lt;/b&gt;&lt;/b&gt;&lt;/li&gt;&lt;li&gt;&lt;b style=&quot;background-color: initial; border-color: var(--border-color);&quot;&gt;&lt;span style=&quot;font-weight: 400;&quot;&gt;Address Prefix:&lt;/span&gt;&lt;b&gt;&amp;nbsp;&lt;span style=&quot;white-space: pre;&quot;&gt;&#x9;&lt;/span&gt;&lt;span style=&quot;white-space: pre;&quot;&gt;&#x9;&lt;/span&gt;&lt;font&gt;172.28.40.0/21&lt;/font&gt;&lt;/b&gt;&lt;/b&gt;&lt;/li&gt;&lt;li&gt;&lt;b style=&quot;background-color: initial; border-color: var(--border-color);&quot;&gt;&lt;span style=&quot;font-weight: 400;&quot;&gt;Next Hop Type:&lt;/span&gt;&lt;b&gt;&amp;nbsp;&lt;span style=&quot;white-space: pre;&quot;&gt;&#x9;&lt;/span&gt;&lt;span style=&quot;white-space: pre;&quot;&gt;&#x9;&lt;/span&gt;Virtual Appliance&lt;/b&gt;&lt;/b&gt;&lt;/li&gt;&lt;li&gt;&lt;b style=&quot;background-color: initial; border-color: var(--border-color);&quot;&gt;&lt;span style=&quot;font-weight: 400;&quot;&gt;Next Hop IP Address:&lt;/span&gt;&lt;b&gt;&amp;nbsp;&lt;span style=&quot;white-space: pre;&quot;&gt;&#x9;&lt;/span&gt;&lt;/b&gt;&lt;/b&gt;&lt;b style=&quot;background-color: initial; border-color: var(--border-color);&quot;&gt;172.28.&lt;u&gt;10&lt;/u&gt;.68&lt;/b&gt;&lt;/li&gt;&lt;/ul&gt;&lt;/div&gt;&lt;/div&gt;" style="rounded=0;whiteSpace=wrap;html=1;fontColor=#000000;" parent="PHRRr8yhrGrFgZKM-X4D-1" vertex="1">
          <mxGeometry x="670" y="-1084" width="347" height="453" as="geometry" />
        </mxCell>
        <mxCell id="PHRRr8yhrGrFgZKM-X4D-56" value="" style="rounded=0;whiteSpace=wrap;html=1;strokeColor=#3399FF;dashed=1;fillColor=none;strokeWidth=2;" parent="PHRRr8yhrGrFgZKM-X4D-1" vertex="1">
          <mxGeometry x="1945" y="-697" width="510" height="535" as="geometry" />
        </mxCell>
        <mxCell id="PHRRr8yhrGrFgZKM-X4D-57" value="&lt;font style=&quot;border-color: var(--border-color); font-size: 12px;&quot;&gt;&lt;b&gt;vnet-crm-prod-gwc-001&lt;/b&gt;&lt;/font&gt;&lt;div&gt;&lt;font style=&quot;border-color: var(--border-color); font-size: 12px;&quot;&gt;172.28.20.0/24&lt;/font&gt;&lt;span style=&quot;border-color: var(--border-color);&quot;&gt;&lt;/span&gt;&lt;/div&gt;" style="image;aspect=fixed;html=1;points=[];align=left;fontSize=12;image=img/lib/azure2/networking/Virtual_Networks.svg;labelPosition=right;verticalLabelPosition=middle;verticalAlign=middle;spacingLeft=3;labelBackgroundColor=none;" parent="PHRRr8yhrGrFgZKM-X4D-1" vertex="1">
          <mxGeometry x="1965" y="-677" width="67" height="40" as="geometry" />
        </mxCell>
        <mxCell id="PHRRr8yhrGrFgZKM-X4D-58" value="&lt;br&gt;&lt;span style=&quot;color: rgb(0, 0, 0); font-family: Helvetica; font-size: 10px; font-style: normal; font-variant-ligatures: normal; font-variant-caps: normal; font-weight: 400; letter-spacing: normal; orphans: 2; text-align: center; text-indent: 0px; text-transform: none; widows: 2; word-spacing: 0px; -webkit-text-stroke-width: 0px; background-color: rgb(251, 251, 251); text-decoration-thickness: initial; text-decoration-style: initial; text-decoration-color: initial; float: none; display: inline !important;&quot;&gt;FrontendSubnet&lt;/span&gt;&lt;br style=&quot;border-color: var(--border-color); color: rgb(0, 0, 0); font-family: Helvetica; font-size: 10px; font-style: normal; font-variant-ligatures: normal; font-variant-caps: normal; font-weight: 400; letter-spacing: normal; orphans: 2; text-align: center; text-indent: 0px; text-transform: none; widows: 2; word-spacing: 0px; -webkit-text-stroke-width: 0px; background-color: rgb(251, 251, 251); text-decoration-thickness: initial; text-decoration-style: initial; text-decoration-color: initial;&quot;&gt;172.28.20.0/26" style="rounded=0;whiteSpace=wrap;html=1;fillColor=none;strokeColor=#999999;dashed=1;strokeWidth=2;" parent="PHRRr8yhrGrFgZKM-X4D-1" vertex="1">
          <mxGeometry x="1992.5" y="-617" width="415" height="110" as="geometry" />
        </mxCell>
        <mxCell id="PHRRr8yhrGrFgZKM-X4D-59" value="&lt;br style=&quot;border-color: var(--border-color);&quot;&gt;BackendSubnet&lt;br style=&quot;border-color: var(--border-color); font-size: 10px;&quot;&gt;172.28.20.64/26" style="rounded=0;whiteSpace=wrap;html=1;fillColor=none;strokeColor=#999999;dashed=1;strokeWidth=2;" parent="PHRRr8yhrGrFgZKM-X4D-1" vertex="1">
          <mxGeometry x="1992.5" y="-463" width="415" height="110" as="geometry" />
        </mxCell>
        <mxCell id="PHRRr8yhrGrFgZKM-X4D-60" style="edgeStyle=orthogonalEdgeStyle;rounded=0;orthogonalLoop=1;jettySize=auto;html=1;entryX=0;entryY=0.5;entryDx=0;entryDy=0;strokeWidth=2;dashed=1;endArrow=none;endFill=0;strokeColor=#006EAF;" parent="PHRRr8yhrGrFgZKM-X4D-1" source="PHRRr8yhrGrFgZKM-X4D-61" target="PHRRr8yhrGrFgZKM-X4D-54" edge="1">
          <mxGeometry relative="1" as="geometry" />
        </mxCell>
        <mxCell id="PHRRr8yhrGrFgZKM-X4D-61" value="Route Table&lt;br style=&quot;border-color: var(--border-color);&quot;&gt;Spoke CRM" style="image;aspect=fixed;html=1;points=[];align=center;fontSize=12;image=img/lib/azure2/networking/Route_Tables.svg;" parent="PHRRr8yhrGrFgZKM-X4D-1" vertex="1">
          <mxGeometry x="2375" y="-637" width="53.68" height="52" as="geometry" />
        </mxCell>
        <mxCell id="PHRRr8yhrGrFgZKM-X4D-62" style="edgeStyle=orthogonalEdgeStyle;rounded=0;orthogonalLoop=1;jettySize=auto;html=1;entryX=0;entryY=0.5;entryDx=0;entryDy=0;strokeWidth=2;strokeColor=#006EAF;dashed=1;endArrow=none;endFill=0;" parent="PHRRr8yhrGrFgZKM-X4D-1" source="PHRRr8yhrGrFgZKM-X4D-63" target="PHRRr8yhrGrFgZKM-X4D-54" edge="1">
          <mxGeometry relative="1" as="geometry" />
        </mxCell>
        <mxCell id="PHRRr8yhrGrFgZKM-X4D-63" value="Route Table&lt;br style=&quot;border-color: var(--border-color);&quot;&gt;Spoke CRM" style="image;aspect=fixed;html=1;points=[];align=center;fontSize=12;image=img/lib/azure2/networking/Route_Tables.svg;" parent="PHRRr8yhrGrFgZKM-X4D-1" vertex="1">
          <mxGeometry x="2375" y="-475" width="53.68" height="52" as="geometry" />
        </mxCell>
        <mxCell id="PHRRr8yhrGrFgZKM-X4D-64" value="VM02" style="image;aspect=fixed;html=1;points=[];align=center;fontSize=12;image=img/lib/azure2/compute/Virtual_Machine.svg;spacing=0;labelBackgroundColor=none;" parent="PHRRr8yhrGrFgZKM-X4D-1" vertex="1">
          <mxGeometry x="2015" y="-598" width="65.76" height="61" as="geometry" />
        </mxCell>
        <mxCell id="PHRRr8yhrGrFgZKM-X4D-65" value="VM03" style="image;aspect=fixed;html=1;points=[];align=center;fontSize=12;image=img/lib/azure2/compute/Virtual_Machine.svg;spacing=0;labelBackgroundColor=none;" parent="PHRRr8yhrGrFgZKM-X4D-1" vertex="1">
          <mxGeometry x="2015" y="-452" width="63.6" height="59" as="geometry" />
        </mxCell>
        <mxCell id="PHRRr8yhrGrFgZKM-X4D-66" value="&lt;br style=&quot;border-color: var(--border-color);&quot;&gt;ManagedInstanceSubnet&lt;br style=&quot;border-color: var(--border-color); font-size: 10px;&quot;&gt;172.28.20.64/26" style="rounded=0;whiteSpace=wrap;html=1;fillColor=none;strokeColor=#999999;dashed=1;strokeWidth=2;" parent="PHRRr8yhrGrFgZKM-X4D-1" vertex="1">
          <mxGeometry x="1992.5" y="-304" width="415" height="110" as="geometry" />
        </mxCell>
        <mxCell id="PHRRr8yhrGrFgZKM-X4D-67" value="Route Table&lt;br style=&quot;border-color: var(--border-color);&quot;&gt;Spoke SQL MI" style="image;aspect=fixed;html=1;points=[];align=center;fontSize=12;image=img/lib/azure2/networking/Route_Tables.svg;" parent="PHRRr8yhrGrFgZKM-X4D-1" vertex="1">
          <mxGeometry x="2375" y="-284" width="53.68" height="52" as="geometry" />
        </mxCell>
        <mxCell id="PHRRr8yhrGrFgZKM-X4D-68" value="" style="image;aspect=fixed;html=1;points=[];align=center;fontSize=12;image=img/lib/azure2/databases/SQL_Managed_Instance.svg;" parent="PHRRr8yhrGrFgZKM-X4D-1" vertex="1">
          <mxGeometry x="2015.76" y="-281" width="65" height="64" as="geometry" />
        </mxCell>
        <mxCell id="PHRRr8yhrGrFgZKM-X4D-69" value="&lt;ul&gt;&lt;li&gt;&lt;span style=&quot;background-color: initial;&quot;&gt;Route Table: &lt;span style=&quot;white-space: pre;&quot;&gt;&#x9;&lt;span style=&quot;white-space: pre;&quot;&gt;&#x9;&lt;/span&gt;&lt;span style=&quot;white-space: pre;&quot;&gt;&#x9;&lt;/span&gt;&lt;span style=&quot;white-space: pre;&quot;&gt;&#x9;&lt;/span&gt;&lt;/span&gt;&lt;/span&gt;&lt;b style=&quot;background-color: initial;&quot;&gt;udr-crm-gwc-managedinstance&lt;/b&gt;&lt;br&gt;&lt;/li&gt;&lt;li&gt;&lt;span style=&quot;background-color: initial;&quot;&gt;Propagate Gateway Routes: &lt;span style=&quot;white-space: pre;&quot;&gt;&#x9;&lt;/span&gt;&lt;/span&gt;&lt;b style=&quot;background-color: initial;&quot;&gt;&lt;font color=&quot;#ff0000&quot;&gt;No&lt;/font&gt;&lt;/b&gt;&lt;br&gt;&lt;/li&gt;&lt;/ul&gt;&lt;div style=&quot;text-align: center;&quot;&gt;------------------------------------&lt;/div&gt;&lt;ul&gt;&lt;li&gt;&lt;span style=&quot;background-color: initial;&quot;&gt;User-Defined Route:&amp;nbsp;&lt;span style=&quot;white-space: pre;&quot;&gt;&#x9;&lt;/span&gt;&lt;/span&gt;&lt;b style=&quot;background-color: initial; border-color: var(--border-color);&quot;&gt;send-all-to-fw&lt;/b&gt;&lt;br&gt;&lt;/li&gt;&lt;li&gt;&lt;span style=&quot;background-color: initial;&quot;&gt;Address Prefix:&lt;/span&gt;&lt;b style=&quot;background-color: initial;&quot;&gt; &lt;span style=&quot;white-space: pre;&quot;&gt;&#x9;&lt;span style=&quot;white-space: pre;&quot;&gt;&#x9;&lt;/span&gt;&lt;/span&gt;0.0.0.0/0&lt;/b&gt;&lt;br&gt;&lt;/li&gt;&lt;li&gt;Next Hop Type:&lt;b&gt; &lt;span style=&quot;white-space: pre;&quot;&gt;&#x9;&lt;span style=&quot;white-space: pre;&quot;&gt;&#x9;&lt;/span&gt;&lt;/span&gt;Virtual Appliance&lt;/b&gt;&lt;/li&gt;&lt;li&gt;Next Hop IP Address:&lt;b&gt;&amp;nbsp;&lt;span style=&quot;white-space: pre;&quot;&gt;&#x9;&lt;/span&gt;&lt;/b&gt;&lt;b style=&quot;border-color: var(--border-color);&quot;&gt;172.28.0.68&lt;/b&gt;&lt;/li&gt;&lt;/ul&gt;&lt;div&gt;&lt;br&gt;&lt;/div&gt;&lt;ul&gt;&lt;li&gt;&lt;span style=&quot;background-color: initial;&quot;&gt;User-Defined Route:&amp;nbsp;&lt;span style=&quot;white-space: pre;&quot;&gt;&#x9;&lt;/span&gt;&lt;/span&gt;&lt;b style=&quot;background-color: initial; border-color: var(--border-color);&quot;&gt;Microsoft.Sql-managedInstances_UseOnly-to-vnetlocal&lt;/b&gt;&lt;br&gt;&lt;/li&gt;&lt;li&gt;Destination:&lt;b&gt;&amp;nbsp;&lt;span style=&quot;white-space: pre;&quot;&gt;&#x9;&lt;span style=&quot;white-space: pre;&quot;&gt;&#x9;&lt;span style=&quot;white-space: pre;&quot;&gt;&#x9;&lt;/span&gt;&lt;/span&gt;&lt;/span&gt;ServiceTag&lt;/b&gt;&lt;/li&gt;&lt;li&gt;Next Hop Type:&lt;b&gt;&amp;nbsp;&lt;span style=&quot;white-space: pre;&quot;&gt;&#x9;&lt;span style=&quot;white-space: pre;&quot;&gt;&#x9;&lt;/span&gt;&lt;/span&gt;VnetLocal&lt;/b&gt;&lt;/li&gt;&lt;/ul&gt;" style="rounded=0;whiteSpace=wrap;html=1;align=left;verticalAlign=top;" parent="PHRRr8yhrGrFgZKM-X4D-1" vertex="1">
          <mxGeometry x="2578" y="-318" width="514" height="240" as="geometry" />
        </mxCell>
        <mxCell id="PHRRr8yhrGrFgZKM-X4D-70" value="On-premises DataCenter" style="rounded=0;whiteSpace=wrap;html=1;strokeColor=#67AB9F;dashed=1;fillColor=none;strokeWidth=2;verticalAlign=top;" parent="PHRRr8yhrGrFgZKM-X4D-1" vertex="1">
          <mxGeometry x="96" y="-1048" width="341" height="680" as="geometry" />
        </mxCell>
        <mxCell id="PHRRr8yhrGrFgZKM-X4D-71" value="External Firewall" style="shape=image;verticalLabelPosition=bottom;labelBackgroundColor=default;verticalAlign=top;aspect=fixed;imageAspect=0;image=https://cdn-icons-png.flaticon.com/512/811/811683.png;" parent="PHRRr8yhrGrFgZKM-X4D-1" vertex="1">
          <mxGeometry x="233.5" y="-1005" width="80" height="80" as="geometry" />
        </mxCell>
        <mxCell id="PHRRr8yhrGrFgZKM-X4D-72" value="&lt;span style=&quot;color: rgb(0, 0, 0); font-family: Helvetica; font-size: 10px; font-style: normal; font-variant-ligatures: normal; font-variant-caps: normal; font-weight: 400; letter-spacing: normal; orphans: 2; text-align: center; text-indent: 0px; text-transform: none; widows: 2; word-spacing: 0px; -webkit-text-stroke-width: 0px; background-color: rgb(251, 251, 251); text-decoration-thickness: initial; text-decoration-style: initial; text-decoration-color: initial; float: none; display: inline !important;&quot;&gt;ExternalDMZSubnet&lt;/span&gt;&lt;br style=&quot;border-color: var(--border-color); color: rgb(0, 0, 0); font-family: Helvetica; font-size: 10px; font-style: normal; font-variant-ligatures: normal; font-variant-caps: normal; font-weight: 400; letter-spacing: normal; orphans: 2; text-align: center; text-indent: 0px; text-transform: none; widows: 2; word-spacing: 0px; -webkit-text-stroke-width: 0px; background-color: rgb(251, 251, 251); text-decoration-thickness: initial; text-decoration-style: initial; text-decoration-color: initial;&quot;&gt;192.168.10.0/24" style="rounded=0;whiteSpace=wrap;html=1;fillColor=none;strokeColor=#999999;dashed=1;strokeWidth=2;" parent="PHRRr8yhrGrFgZKM-X4D-1" vertex="1">
          <mxGeometry x="136" y="-928" width="275" height="110" as="geometry" />
        </mxCell>
        <mxCell id="PHRRr8yhrGrFgZKM-X4D-73" value="&lt;br&gt;&lt;span style=&quot;font-size: 10px;&quot;&gt;InternalDMZSubnet&lt;/span&gt;&lt;br style=&quot;border-color: var(--border-color); color: rgb(0, 0, 0); font-family: Helvetica; font-size: 10px; font-style: normal; font-variant-ligatures: normal; font-variant-caps: normal; font-weight: 400; letter-spacing: normal; orphans: 2; text-align: center; text-indent: 0px; text-transform: none; widows: 2; word-spacing: 0px; -webkit-text-stroke-width: 0px; background-color: rgb(251, 251, 251); text-decoration-thickness: initial; text-decoration-style: initial; text-decoration-color: initial;&quot;&gt;192.168.20.0/24" style="rounded=0;whiteSpace=wrap;html=1;fillColor=none;strokeColor=#999999;dashed=1;strokeWidth=2;" parent="PHRRr8yhrGrFgZKM-X4D-1" vertex="1">
          <mxGeometry x="136" y="-669" width="275" height="110" as="geometry" />
        </mxCell>
        <mxCell id="PHRRr8yhrGrFgZKM-X4D-74" value="Internal Firewall" style="shape=image;verticalLabelPosition=bottom;labelBackgroundColor=default;verticalAlign=top;aspect=fixed;imageAspect=0;image=https://cdn-icons-png.flaticon.com/512/811/811683.png;" parent="PHRRr8yhrGrFgZKM-X4D-1" vertex="1">
          <mxGeometry x="233.5" y="-749" width="80" height="80" as="geometry" />
        </mxCell>
        <mxCell id="PHRRr8yhrGrFgZKM-X4D-92" style="edgeStyle=orthogonalEdgeStyle;rounded=0;orthogonalLoop=1;jettySize=auto;html=1;entryX=0;entryY=0.25;entryDx=0;entryDy=0;strokeWidth=2;dashed=1;strokeColor=#006EAF;endArrow=none;endFill=0;" parent="PHRRr8yhrGrFgZKM-X4D-1" source="PHRRr8yhrGrFgZKM-X4D-67" target="PHRRr8yhrGrFgZKM-X4D-69" edge="1">
          <mxGeometry relative="1" as="geometry" />
        </mxCell>
        <mxCell id="PHRRr8yhrGrFgZKM-X4D-94" value="" style="edgeStyle=orthogonalEdgeStyle;rounded=0;orthogonalLoop=1;jettySize=auto;html=1;entryX=1.006;entryY=0.365;entryDx=0;entryDy=0;entryPerimeter=0;strokeWidth=2;dashed=1;fillColor=#1ba1e2;strokeColor=#006EAF;endArrow=none;endFill=0;fontColor=#006EAF;fontStyle=1" parent="PHRRr8yhrGrFgZKM-X4D-1" source="PHRRr8yhrGrFgZKM-X4D-31" target="PHRRr8yhrGrFgZKM-X4D-55" edge="1">
          <mxGeometry x="-0.0007" relative="1" as="geometry">
            <mxPoint as="offset" />
          </mxGeometry>
        </mxCell>
        <mxCell id="PHRRr8yhrGrFgZKM-X4D-97" value="" style="image;aspect=fixed;html=1;points=[];align=center;fontSize=12;image=img/lib/azure2/networking/Network_Security_Groups.svg;" parent="PHRRr8yhrGrFgZKM-X4D-1" vertex="1">
          <mxGeometry x="2385.08" y="-545" width="39.53" height="48" as="geometry" />
        </mxCell>
        <mxCell id="PHRRr8yhrGrFgZKM-X4D-98" value="" style="image;aspect=fixed;html=1;points=[];align=center;fontSize=12;image=img/lib/azure2/networking/Network_Security_Groups.svg;" parent="PHRRr8yhrGrFgZKM-X4D-1" vertex="1">
          <mxGeometry x="2385.08" y="-378" width="39.53" height="48" as="geometry" />
        </mxCell>
        <mxCell id="PHRRr8yhrGrFgZKM-X4D-99" value="" style="edgeStyle=orthogonalEdgeStyle;rounded=0;orthogonalLoop=1;jettySize=auto;html=1;curved=1;startArrow=classic;startFill=1;strokeColor=#B3B3B3;strokeWidth=2;labelBackgroundColor=none;" parent="PHRRr8yhrGrFgZKM-X4D-1" source="PHRRr8yhrGrFgZKM-X4D-97" target="PHRRr8yhrGrFgZKM-X4D-98" edge="1">
          <mxGeometry relative="1" as="geometry">
            <mxPoint x="2429.6800000000003" y="-537" as="sourcePoint" />
            <mxPoint x="2428.6800000000003" y="-406" as="targetPoint" />
            <Array as="points">
              <mxPoint x="2476" y="-534" />
              <mxPoint x="2476" y="-362" />
            </Array>
          </mxGeometry>
        </mxCell>
        <mxCell id="1K8vyOkMx8vhL-2WFBwF-3" value="&lt;font style=&quot;border-color: var(--border-color); color: rgb(179, 179, 179); font-size: 8px; font-weight: 700; background-color: rgb(251, 251, 251);&quot;&gt;Virtual Network Traffic&lt;br style=&quot;border-color: var(--border-color);&quot;&gt;&lt;span style=&quot;border-color: var(--border-color);&quot;&gt;secured with NSG Rules&lt;/span&gt;&lt;/font&gt;&lt;div style=&quot;border-color: var(--border-color); color: rgb(179, 179, 179); font-size: 8px; font-weight: 700; background-color: rgb(251, 251, 251);&quot;&gt;&lt;font style=&quot;border-color: var(--border-color);&quot;&gt;&lt;span style=&quot;border-color: var(--border-color);&quot;&gt;(inside Spoke)&lt;/span&gt;&lt;/font&gt;&lt;/div&gt;" style="edgeLabel;html=1;align=center;verticalAlign=middle;resizable=0;points=[];" parent="PHRRr8yhrGrFgZKM-X4D-99" vertex="1" connectable="0">
          <mxGeometry x="0.1538" y="3" relative="1" as="geometry">
            <mxPoint x="41" y="30" as="offset" />
          </mxGeometry>
        </mxCell>
        <mxCell id="PHRRr8yhrGrFgZKM-X4D-100" style="edgeStyle=orthogonalEdgeStyle;rounded=0;orthogonalLoop=1;jettySize=auto;html=1;entryX=0.006;entryY=0.437;entryDx=0;entryDy=0;entryPerimeter=0;strokeColor=#FF8000;curved=1;strokeWidth=2;startArrow=classic;startFill=1;" parent="PHRRr8yhrGrFgZKM-X4D-1" source="PHRRr8yhrGrFgZKM-X4D-16" target="PHRRr8yhrGrFgZKM-X4D-86" edge="1">
          <mxGeometry relative="1" as="geometry">
            <Array as="points">
              <mxPoint x="1958" y="-762" />
              <mxPoint x="1958" y="-994" />
            </Array>
          </mxGeometry>
        </mxCell>
        <mxCell id="1K8vyOkMx8vhL-2WFBwF-1" value="&lt;font style=&quot;border-color: var(--border-color); color: rgb(255, 128, 0); background-color: rgb(251, 251, 251); font-size: 8px;&quot;&gt;Virtual Network Traffic&lt;br style=&quot;border-color: var(--border-color);&quot;&gt;&lt;span style=&quot;border-color: var(--border-color);&quot;&gt;secured with NSG Rules&lt;/span&gt;&lt;/font&gt;&lt;div style=&quot;border-color: var(--border-color); color: rgb(255, 128, 0); background-color: rgb(251, 251, 251); font-size: 8px;&quot;&gt;&lt;font style=&quot;border-color: var(--border-color);&quot;&gt;&lt;span style=&quot;border-color: var(--border-color);&quot;&gt;(Direct Hub)&lt;/span&gt;&lt;/font&gt;&lt;/div&gt;" style="edgeLabel;html=1;align=center;verticalAlign=middle;resizable=0;points=[];" parent="PHRRr8yhrGrFgZKM-X4D-100" vertex="1" connectable="0">
          <mxGeometry x="-0.4562" y="19" relative="1" as="geometry">
            <mxPoint x="6" y="19" as="offset" />
          </mxGeometry>
        </mxCell>
        <mxCell id="PHRRr8yhrGrFgZKM-X4D-3" value="" style="rounded=0;whiteSpace=wrap;html=1;strokeColor=#000000;fillColor=none;strokeWidth=4;dashed=1;" parent="PHRRr8yhrGrFgZKM-X4D-1" vertex="1">
          <mxGeometry x="1178" y="-1207" width="557" height="854" as="geometry" />
        </mxCell>
        <mxCell id="PHRRr8yhrGrFgZKM-X4D-4" value="&lt;font color=&quot;#000000&quot; style=&quot;font-size: 12px;&quot;&gt;&lt;br style=&quot;border-color: var(--border-color);&quot;&gt;AzureFirewallSubnet&lt;br style=&quot;border-color: var(--border-color);&quot;&gt;&lt;/font&gt;&lt;div style=&quot;&quot;&gt;172.28.0.64/26&lt;br&gt;(62 Hosts)&lt;br&gt;&lt;/div&gt;" style="rounded=0;whiteSpace=wrap;html=1;fillColor=none;dashed=1;strokeColor=#FF8000;strokeWidth=2;" parent="PHRRr8yhrGrFgZKM-X4D-1" vertex="1">
          <mxGeometry x="1237.8400000000001" y="-977" width="460" height="130" as="geometry" />
        </mxCell>
        <mxCell id="PHRRr8yhrGrFgZKM-X4D-5" value="&lt;span style=&quot;border-color: var(--border-color);&quot;&gt;&lt;font style=&quot;border-color: var(--border-color); font-size: 12px;&quot;&gt;&lt;b&gt;vnet-hub-prod-gwc-001&lt;/b&gt;&lt;br&gt;&lt;font color=&quot;#ff8000&quot;&gt;172.28.0.0/23&lt;/font&gt;&amp;nbsp;&lt;font color=&quot;#ff8000&quot;&gt;(Direct)&lt;/font&gt;&lt;br&gt;&lt;/font&gt;&lt;/span&gt;" style="image;aspect=fixed;html=1;points=[];align=left;fontSize=12;image=img/lib/azure2/networking/Virtual_Networks.svg;labelPosition=right;verticalLabelPosition=middle;verticalAlign=middle;spacingLeft=3;labelBackgroundColor=none;fontColor=#000000;" parent="PHRRr8yhrGrFgZKM-X4D-1" vertex="1">
          <mxGeometry x="1226" y="-1187" width="67" height="40" as="geometry" />
        </mxCell>
        <mxCell id="PHRRr8yhrGrFgZKM-X4D-6" value="&lt;font style=&quot;font-size: 12px;&quot;&gt;&lt;br&gt;&lt;span style=&quot;color: rgb(0, 0, 0); font-family: Helvetica; font-style: normal; font-variant-ligatures: normal; font-variant-caps: normal; font-weight: 400; letter-spacing: normal; orphans: 2; text-align: center; text-indent: 0px; text-transform: none; widows: 2; word-spacing: 0px; -webkit-text-stroke-width: 0px; background-color: rgb(251, 251, 251); text-decoration-thickness: initial; text-decoration-style: initial; text-decoration-color: initial; float: none; display: inline !important;&quot;&gt;GatewaySubnet&lt;/span&gt;&lt;br style=&quot;border-color: var(--border-color); color: rgb(0, 0, 0); font-family: Helvetica; font-style: normal; font-variant-ligatures: normal; font-variant-caps: normal; font-weight: 400; letter-spacing: normal; orphans: 2; text-align: center; text-indent: 0px; text-transform: none; widows: 2; word-spacing: 0px; -webkit-text-stroke-width: 0px; background-color: rgb(251, 251, 251); text-decoration-thickness: initial; text-decoration-style: initial; text-decoration-color: initial;&quot;&gt;&lt;span style=&quot;color: rgb(0, 0, 0); font-family: Helvetica; font-style: normal; font-variant-ligatures: normal; font-variant-caps: normal; font-weight: 400; letter-spacing: normal; orphans: 2; text-align: center; text-indent: 0px; text-transform: none; widows: 2; word-spacing: 0px; -webkit-text-stroke-width: 0px; background-color: rgb(251, 251, 251); text-decoration-thickness: initial; text-decoration-style: initial; text-decoration-color: initial; float: none; display: inline !important;&quot;&gt;172.28.0.0/26&lt;/span&gt;&lt;/font&gt;&lt;div style=&quot;&quot;&gt;&lt;br&gt;&lt;/div&gt;" style="rounded=0;whiteSpace=wrap;html=1;fillColor=none;strokeColor=#FF8000;dashed=1;strokeWidth=2;" parent="PHRRr8yhrGrFgZKM-X4D-1" vertex="1">
          <mxGeometry x="1236" y="-1127" width="460" height="130" as="geometry" />
        </mxCell>
        <mxCell id="PHRRr8yhrGrFgZKM-X4D-7" value="&lt;b&gt;VPN Gateway&lt;br&gt;&lt;/b&gt;" style="image;aspect=fixed;html=1;points=[];align=center;fontSize=12;image=img/lib/azure2/networking/Virtual_Network_Gateways.svg;labelBackgroundColor=none;spacing=-1;movable=1;resizable=1;rotatable=1;deletable=1;editable=1;locked=0;connectable=1;fontColor=#000000;" parent="PHRRr8yhrGrFgZKM-X4D-1" vertex="1">
          <mxGeometry x="1276" y="-1106.9952173913043" width="46" height="61.02" as="geometry" />
        </mxCell>
        <mxCell id="PHRRr8yhrGrFgZKM-X4D-8" value="Route Table&lt;br&gt;Gateway" style="image;aspect=fixed;html=1;points=[];align=center;fontSize=12;image=img/lib/azure2/networking/Route_Tables.svg;" parent="PHRRr8yhrGrFgZKM-X4D-1" vertex="1">
          <mxGeometry x="1656" y="-1098" width="53.68" height="52" as="geometry" />
        </mxCell>
        <mxCell id="PHRRr8yhrGrFgZKM-X4D-9" value="" style="group" parent="PHRRr8yhrGrFgZKM-X4D-1" vertex="1" connectable="0">
          <mxGeometry x="1236" y="-517" width="483.68" height="130" as="geometry" />
        </mxCell>
        <mxCell id="PHRRr8yhrGrFgZKM-X4D-10" value="&lt;font color=&quot;#000000&quot;&gt;PrivatDNSResolver&lt;b&gt;Outbound&lt;/b&gt;&lt;br&gt;172.28.0.224/27&lt;br&gt;&lt;/font&gt;" style="rounded=0;whiteSpace=wrap;html=1;fillColor=none;dashed=1;strokeColor=#FF8000;strokeWidth=2;" parent="PHRRr8yhrGrFgZKM-X4D-9" vertex="1">
          <mxGeometry width="460" height="130" as="geometry" />
        </mxCell>
        <mxCell id="PHRRr8yhrGrFgZKM-X4D-11" value="DNS" style="shape=image;verticalLabelPosition=bottom;labelBackgroundColor=none;verticalAlign=top;aspect=fixed;imageAspect=0;image=http://code.benco.io/icon-collection/azure-icons/DNS-Zones.svg;spacing=-1;fontColor=#000000;fontStyle=1" parent="PHRRr8yhrGrFgZKM-X4D-9" vertex="1">
          <mxGeometry x="20" y="20.001304347826135" width="60" height="60" as="geometry" />
        </mxCell>
        <mxCell id="PHRRr8yhrGrFgZKM-X4D-12" value="" style="image;aspect=fixed;html=1;points=[];align=center;fontSize=12;image=img/lib/azure2/networking/Network_Security_Groups.svg;" parent="PHRRr8yhrGrFgZKM-X4D-9" vertex="1">
          <mxGeometry x="435.99999999999994" y="36" width="39.53" height="48" as="geometry" />
        </mxCell>
        <mxCell id="PHRRr8yhrGrFgZKM-X4D-13" value="" style="group" parent="PHRRr8yhrGrFgZKM-X4D-1" vertex="1" connectable="0">
          <mxGeometry x="1236" y="-827" width="476.6099999999999" height="130" as="geometry" />
        </mxCell>
        <mxCell id="PHRRr8yhrGrFgZKM-X4D-14" value="&lt;font color=&quot;#000000&quot;&gt;AzureBastion&lt;br&gt;172.28.0.128/26&lt;br&gt;(62 Hosts)&lt;/font&gt;" style="rounded=0;whiteSpace=wrap;html=1;fillColor=none;dashed=1;strokeColor=#FF8000;strokeWidth=2;" parent="PHRRr8yhrGrFgZKM-X4D-13" vertex="1">
          <mxGeometry width="460" height="130" as="geometry" />
        </mxCell>
        <mxCell id="PHRRr8yhrGrFgZKM-X4D-15" value="Bastion" style="image;aspect=fixed;html=1;points=[];align=center;fontSize=12;image=img/lib/azure2/networking/Bastions.svg;labelBackgroundColor=none;fontColor=#000000;fontStyle=1" parent="PHRRr8yhrGrFgZKM-X4D-13" vertex="1">
          <mxGeometry x="20" y="31" width="49.47" height="58" as="geometry" />
        </mxCell>
        <mxCell id="PHRRr8yhrGrFgZKM-X4D-16" value="" style="image;aspect=fixed;html=1;points=[];align=center;fontSize=12;image=img/lib/azure2/networking/Network_Security_Groups.svg;" parent="PHRRr8yhrGrFgZKM-X4D-13" vertex="1">
          <mxGeometry x="437.0799999999999" y="41" width="39.53" height="48" as="geometry" />
        </mxCell>
        <mxCell id="PHRRr8yhrGrFgZKM-X4D-22" value="" style="group" parent="PHRRr8yhrGrFgZKM-X4D-1" vertex="1" connectable="0">
          <mxGeometry x="1236" y="-670" width="483.68000000000006" height="130" as="geometry" />
        </mxCell>
        <mxCell id="PHRRr8yhrGrFgZKM-X4D-23" value="&lt;font color=&quot;#000000&quot;&gt;PrivatDNSResolver&lt;b&gt;Inbound&lt;/b&gt;&lt;br&gt;&lt;/font&gt;172.28.0.192/27" style="rounded=0;whiteSpace=wrap;html=1;fillColor=none;dashed=1;strokeColor=#FF8000;strokeWidth=2;" parent="PHRRr8yhrGrFgZKM-X4D-22" vertex="1">
          <mxGeometry width="460" height="130" as="geometry" />
        </mxCell>
        <mxCell id="PHRRr8yhrGrFgZKM-X4D-24" value="" style="group" parent="PHRRr8yhrGrFgZKM-X4D-22" vertex="1" connectable="0">
          <mxGeometry x="20" y="20.001304347826135" width="463.68000000000006" height="60" as="geometry" />
        </mxCell>
        <mxCell id="PHRRr8yhrGrFgZKM-X4D-25" value="DNS" style="shape=image;verticalLabelPosition=bottom;labelBackgroundColor=none;verticalAlign=top;aspect=fixed;imageAspect=0;image=http://code.benco.io/icon-collection/azure-icons/DNS-Zones.svg;spacing=-1;fontColor=#000000;fontStyle=1" parent="PHRRr8yhrGrFgZKM-X4D-24" vertex="1">
          <mxGeometry width="60" height="60" as="geometry" />
        </mxCell>
        <mxCell id="PHRRr8yhrGrFgZKM-X4D-26" value="" style="image;aspect=fixed;html=1;points=[];align=center;fontSize=12;image=img/lib/azure2/networking/Network_Security_Groups.svg;" parent="PHRRr8yhrGrFgZKM-X4D-22" vertex="1">
          <mxGeometry x="434.14999999999986" y="32" width="39.53" height="48" as="geometry" />
        </mxCell>
        <mxCell id="PHRRr8yhrGrFgZKM-X4D-38" style="edgeStyle=orthogonalEdgeStyle;rounded=0;orthogonalLoop=1;jettySize=auto;html=1;exitX=0;exitY=0.25;exitDx=0;exitDy=0;entryX=-0.002;entryY=0.795;entryDx=0;entryDy=0;entryPerimeter=0;curved=1;strokeColor=#B266FF;strokeWidth=2;" parent="PHRRr8yhrGrFgZKM-X4D-1" source="PHRRr8yhrGrFgZKM-X4D-29" target="PHRRr8yhrGrFgZKM-X4D-7" edge="1">
          <mxGeometry relative="1" as="geometry">
            <Array as="points">
              <mxPoint x="1181" y="-942" />
              <mxPoint x="1181" y="-1058" />
            </Array>
          </mxGeometry>
        </mxCell>
        <mxCell id="PHRRr8yhrGrFgZKM-X4D-39" style="edgeStyle=orthogonalEdgeStyle;rounded=0;orthogonalLoop=1;jettySize=auto;html=1;curved=1;strokeWidth=2;strokeColor=#009900;entryX=0.5;entryY=0;entryDx=0;entryDy=0;" parent="PHRRr8yhrGrFgZKM-X4D-1" target="PHRRr8yhrGrFgZKM-X4D-29" edge="1">
          <mxGeometry relative="1" as="geometry">
            <mxPoint x="1941" y="-1006.9983720930231" as="sourcePoint" />
            <mxPoint x="1300.9999999999995" y="-968.51" as="targetPoint" />
            <Array as="points">
              <mxPoint x="1821" y="-1007" />
              <mxPoint x="1821" y="-986" />
              <mxPoint x="1531" y="-986" />
              <mxPoint x="1531" y="-966" />
              <mxPoint x="1408" y="-966" />
              <mxPoint x="1408" y="-979" />
              <mxPoint x="1373" y="-979" />
              <mxPoint x="1373" y="-983" />
              <mxPoint x="1340" y="-983" />
            </Array>
          </mxGeometry>
        </mxCell>
        <mxCell id="M1UtT46xdkqKAZhiooVV-0" value="&lt;br&gt;&lt;span style=&quot;font-size: 10px;&quot;&gt;InternalServerSubnet&lt;/span&gt;&lt;br style=&quot;border-color: var(--border-color); color: rgb(0, 0, 0); font-family: Helvetica; font-size: 10px; font-style: normal; font-variant-ligatures: normal; font-variant-caps: normal; font-weight: 400; letter-spacing: normal; orphans: 2; text-align: center; text-indent: 0px; text-transform: none; widows: 2; word-spacing: 0px; -webkit-text-stroke-width: 0px; background-color: rgb(251, 251, 251); text-decoration-thickness: initial; text-decoration-style: initial; text-decoration-color: initial;&quot;&gt;192.168.30.0/24" style="rounded=0;whiteSpace=wrap;html=1;fillColor=none;strokeColor=#999999;dashed=1;strokeWidth=2;verticalAlign=top;" parent="PHRRr8yhrGrFgZKM-X4D-1" vertex="1">
          <mxGeometry x="136" y="-527" width="275" height="110" as="geometry" />
        </mxCell>
        <mxCell id="M1UtT46xdkqKAZhiooVV-1" value="" style="image;aspect=fixed;perimeter=ellipsePerimeter;html=1;align=center;shadow=0;dashed=0;spacingTop=3;image=img/lib/active_directory/generic_server.svg;" parent="PHRRr8yhrGrFgZKM-X4D-1" vertex="1">
          <mxGeometry x="225" y="-473" width="28.000000000000004" height="50" as="geometry" />
        </mxCell>
        <mxCell id="M1UtT46xdkqKAZhiooVV-2" value="" style="image;aspect=fixed;perimeter=ellipsePerimeter;html=1;align=center;shadow=0;dashed=0;spacingTop=3;image=img/lib/active_directory/generic_server.svg;" parent="PHRRr8yhrGrFgZKM-X4D-1" vertex="1">
          <mxGeometry x="247" y="-473" width="28.000000000000004" height="50" as="geometry" />
        </mxCell>
        <mxCell id="M1UtT46xdkqKAZhiooVV-4" value="" style="image;aspect=fixed;perimeter=ellipsePerimeter;html=1;align=center;shadow=0;dashed=0;spacingTop=3;image=img/lib/active_directory/generic_server.svg;" parent="PHRRr8yhrGrFgZKM-X4D-1" vertex="1">
          <mxGeometry x="268" y="-473" width="28.000000000000004" height="50" as="geometry" />
        </mxCell>
        <mxCell id="M1UtT46xdkqKAZhiooVV-5" value="" style="image;aspect=fixed;perimeter=ellipsePerimeter;html=1;align=center;shadow=0;dashed=0;spacingTop=3;image=img/lib/active_directory/generic_server.svg;" parent="PHRRr8yhrGrFgZKM-X4D-1" vertex="1">
          <mxGeometry x="290" y="-473" width="28.000000000000004" height="50" as="geometry" />
        </mxCell>
        <mxCell id="PHRRr8yhrGrFgZKM-X4D-51" value="192.168.10.0/24&lt;br&gt;192.168.20.0/24&lt;br&gt;192.168.30.0/24" style="rounded=0;whiteSpace=wrap;html=1;fontStyle=1" parent="PHRRr8yhrGrFgZKM-X4D-1" vertex="1">
          <mxGeometry x="1108" y="-1309" width="118" height="60" as="geometry" />
        </mxCell>
        <mxCell id="1K8vyOkMx8vhL-2WFBwF-0" style="edgeStyle=orthogonalEdgeStyle;rounded=0;orthogonalLoop=1;jettySize=auto;html=1;curved=1;fillColor=#e51400;strokeColor=#B20000;strokeWidth=2;" parent="PHRRr8yhrGrFgZKM-X4D-1" source="PHRRr8yhrGrFgZKM-X4D-29" target="PHRRr8yhrGrFgZKM-X4D-46" edge="1">
          <mxGeometry relative="1" as="geometry" />
        </mxCell>
        <mxCell id="PHRRr8yhrGrFgZKM-X4D-29" value="Azure Firewall &#xa;+ DNS Proxy&#xa;172.28.0.68" style="shape=image;verticalLabelPosition=bottom;labelBackgroundColor=none;verticalAlign=top;aspect=fixed;imageAspect=0;image=http://code.benco.io/icon-collection/azure-icons/Firewalls.svg;spacing=-1;fontStyle=1;fontColor=#000000;" parent="PHRRr8yhrGrFgZKM-X4D-1" vertex="1">
          <mxGeometry x="1305" y="-967" width="70" height="70" as="geometry" />
        </mxCell>
        <mxCell id="PHRRr8yhrGrFgZKM-X4D-31" value="Route Table&lt;br&gt;Firewall" style="image;aspect=fixed;html=1;points=[];align=center;fontSize=12;image=img/lib/azure2/networking/Route_Tables.svg;" parent="PHRRr8yhrGrFgZKM-X4D-1" vertex="1">
          <mxGeometry x="1205" y="-944" width="53.68" height="52" as="geometry" />
        </mxCell>
        <mxCell id="PHRRr8yhrGrFgZKM-X4D-76" value="" style="rounded=0;whiteSpace=wrap;html=1;strokeColor=#3399FF;dashed=1;fillColor=none;strokeWidth=2;" parent="PHRRr8yhrGrFgZKM-X4D-1" vertex="1">
          <mxGeometry x="1945" y="-1158" width="510" height="361" as="geometry" />
        </mxCell>
        <mxCell id="PHRRr8yhrGrFgZKM-X4D-77" value="&lt;font style=&quot;border-color: var(--border-color);&quot;&gt;&lt;b&gt;vnet-webapp-prod-gwc-001&lt;/b&gt;&lt;/font&gt;&lt;div&gt;&lt;font style=&quot;border-color: var(--border-color);&quot;&gt;&lt;font style=&quot;font-size: 12px;&quot;&gt;172.28.10.0/24&lt;/font&gt;&lt;br&gt;&lt;/font&gt;&lt;/div&gt;" style="image;aspect=fixed;html=1;points=[];align=left;fontSize=12;image=img/lib/azure2/networking/Virtual_Networks.svg;labelPosition=right;verticalLabelPosition=middle;verticalAlign=middle;spacingLeft=3;labelBackgroundColor=none;" parent="PHRRr8yhrGrFgZKM-X4D-1" vertex="1">
          <mxGeometry x="1965" y="-1150.98" width="67" height="40" as="geometry" />
        </mxCell>
        <mxCell id="PHRRr8yhrGrFgZKM-X4D-78" value="&lt;br&gt;&lt;span style=&quot;color: rgb(0, 0, 0); font-family: Helvetica; font-size: 10px; font-style: normal; font-variant-ligatures: normal; font-variant-caps: normal; font-weight: 400; letter-spacing: normal; orphans: 2; text-align: center; text-indent: 0px; text-transform: none; widows: 2; word-spacing: 0px; -webkit-text-stroke-width: 0px; background-color: rgb(251, 251, 251); text-decoration-thickness: initial; text-decoration-style: initial; text-decoration-color: initial; float: none; display: inline !important;&quot;&gt;FrontendSubnet&lt;/span&gt;&lt;br style=&quot;border-color: var(--border-color); color: rgb(0, 0, 0); font-family: Helvetica; font-size: 10px; font-style: normal; font-variant-ligatures: normal; font-variant-caps: normal; font-weight: 400; letter-spacing: normal; orphans: 2; text-align: center; text-indent: 0px; text-transform: none; widows: 2; word-spacing: 0px; -webkit-text-stroke-width: 0px; background-color: rgb(251, 251, 251); text-decoration-thickness: initial; text-decoration-style: initial; text-decoration-color: initial;&quot;&gt;172.28.10.0/26" style="rounded=0;whiteSpace=wrap;html=1;fillColor=none;strokeColor=#999999;dashed=1;strokeWidth=2;" parent="PHRRr8yhrGrFgZKM-X4D-1" vertex="1">
          <mxGeometry x="1992.5" y="-1105" width="415" height="122.02" as="geometry" />
        </mxCell>
        <mxCell id="PHRRr8yhrGrFgZKM-X4D-79" style="edgeStyle=orthogonalEdgeStyle;rounded=0;orthogonalLoop=1;jettySize=auto;html=1;entryX=0;entryY=0.5;entryDx=0;entryDy=0;strokeWidth=2;endArrow=none;endFill=0;dashed=1;strokeColor=#006EAF;" parent="PHRRr8yhrGrFgZKM-X4D-1" source="PHRRr8yhrGrFgZKM-X4D-80" target="PHRRr8yhrGrFgZKM-X4D-81" edge="1">
          <mxGeometry relative="1" as="geometry" />
        </mxCell>
        <mxCell id="PHRRr8yhrGrFgZKM-X4D-80" value="Route Table&lt;br&gt;Spoke WebApp" style="image;aspect=fixed;html=1;points=[];align=center;fontSize=12;image=img/lib/azure2/networking/Route_Tables.svg;" parent="PHRRr8yhrGrFgZKM-X4D-1" vertex="1">
          <mxGeometry x="2375" y="-1103.98" width="53.68" height="52" as="geometry" />
        </mxCell>
        <mxCell id="PHRRr8yhrGrFgZKM-X4D-81" value="&lt;ul&gt;&lt;li&gt;&lt;span style=&quot;background-color: initial;&quot;&gt;Route Table:&amp;nbsp;&lt;span style=&quot;white-space: pre;&quot;&gt;&#x9;&lt;span style=&quot;white-space: pre;&quot;&gt;&#x9;&lt;/span&gt;&lt;span style=&quot;white-space: pre;&quot;&gt;&#x9;&lt;/span&gt;&lt;span style=&quot;white-space: pre;&quot;&gt;&#x9;&lt;/span&gt;&lt;/span&gt;&lt;/span&gt;&lt;b style=&quot;background-color: initial;&quot;&gt;udr-webapp-gwc&lt;/b&gt;&lt;br&gt;&lt;/li&gt;&lt;li&gt;&lt;span style=&quot;background-color: initial;&quot;&gt;Propagate Gateway Routes:&amp;nbsp;&lt;span style=&quot;white-space: pre;&quot;&gt;&#x9;&lt;/span&gt;&lt;/span&gt;&lt;b style=&quot;background-color: initial;&quot;&gt;&lt;font color=&quot;#ff0000&quot;&gt;No&lt;/font&gt;&lt;/b&gt;&lt;br&gt;&lt;/li&gt;&lt;/ul&gt;&lt;div style=&quot;text-align: center;&quot;&gt;------------------------&lt;/div&gt;&lt;ul&gt;&lt;li&gt;&lt;span style=&quot;background-color: initial;&quot;&gt;User-Defined Route:&amp;nbsp;&lt;span style=&quot;white-space: pre;&quot;&gt;&#x9;&lt;/span&gt;&lt;/span&gt;&lt;b style=&quot;background-color: initial; border-color: var(--border-color);&quot;&gt;&lt;font&gt;send-all-to-fw&lt;/font&gt;&lt;/b&gt;&lt;/li&gt;&lt;li&gt;Address Prefix:&lt;b&gt; &lt;span style=&quot;white-space: pre;&quot;&gt;&#x9;&lt;span style=&quot;white-space: pre;&quot;&gt;&#x9;&lt;/span&gt;&lt;/span&gt;0.0.0.0/0&lt;/b&gt;&lt;/li&gt;&lt;li&gt;Next Hop Type:&lt;b&gt; &lt;span style=&quot;white-space: pre;&quot;&gt;&#x9;&lt;span style=&quot;white-space: pre;&quot;&gt;&#x9;&lt;/span&gt;&lt;/span&gt;Virtual Appliance&lt;/b&gt;&lt;/li&gt;&lt;li&gt;Next Hop IP Address:&lt;b&gt;&amp;nbsp;&lt;span style=&quot;white-space: pre;&quot;&gt;&#x9;&lt;/span&gt;&lt;/b&gt;&lt;b style=&quot;border-color: var(--border-color);&quot;&gt;172.28.0.68&lt;/b&gt;&lt;/li&gt;&lt;/ul&gt;" style="rounded=0;whiteSpace=wrap;html=1;align=left;verticalAlign=top;fontColor=#000000;" parent="PHRRr8yhrGrFgZKM-X4D-1" vertex="1">
          <mxGeometry x="2582" y="-1042.01" width="320" height="170.02" as="geometry" />
        </mxCell>
        <mxCell id="PHRRr8yhrGrFgZKM-X4D-82" value="VM01" style="image;aspect=fixed;html=1;points=[];align=center;fontSize=12;image=img/lib/azure2/compute/Virtual_Machine.svg;spacing=0;labelBackgroundColor=none;" parent="PHRRr8yhrGrFgZKM-X4D-1" vertex="1">
          <mxGeometry x="2015" y="-1076" width="65.76" height="61" as="geometry" />
        </mxCell>
        <mxCell id="PHRRr8yhrGrFgZKM-X4D-83" value="&lt;br&gt;&lt;span style=&quot;font-size: 10px;&quot;&gt;BackendSubnet&lt;/span&gt;&lt;br style=&quot;border-color: var(--border-color); font-size: 10px;&quot;&gt;172.28.10.64/26" style="rounded=0;whiteSpace=wrap;html=1;fillColor=none;strokeColor=#999999;dashed=1;strokeWidth=2;" parent="PHRRr8yhrGrFgZKM-X4D-1" vertex="1">
          <mxGeometry x="1992.5" y="-924.98" width="415" height="110" as="geometry" />
        </mxCell>
        <mxCell id="PHRRr8yhrGrFgZKM-X4D-84" style="edgeStyle=orthogonalEdgeStyle;rounded=0;orthogonalLoop=1;jettySize=auto;html=1;entryX=0;entryY=0.5;entryDx=0;entryDy=0;strokeWidth=2;dashed=1;endArrow=none;endFill=0;strokeColor=#006EAF;" parent="PHRRr8yhrGrFgZKM-X4D-1" source="PHRRr8yhrGrFgZKM-X4D-85" target="PHRRr8yhrGrFgZKM-X4D-81" edge="1">
          <mxGeometry relative="1" as="geometry" />
        </mxCell>
        <mxCell id="PHRRr8yhrGrFgZKM-X4D-85" value="Route Table&lt;br style=&quot;border-color: var(--border-color);&quot;&gt;Spoke WebApp" style="image;aspect=fixed;html=1;points=[];align=center;fontSize=12;image=img/lib/azure2/networking/Route_Tables.svg;" parent="PHRRr8yhrGrFgZKM-X4D-1" vertex="1">
          <mxGeometry x="2375" y="-929" width="53.68" height="52" as="geometry" />
        </mxCell>
        <mxCell id="PHRRr8yhrGrFgZKM-X4D-86" value="" style="image;aspect=fixed;html=1;points=[];align=center;fontSize=12;image=img/lib/azure2/networking/Network_Security_Groups.svg;" parent="PHRRr8yhrGrFgZKM-X4D-1" vertex="1">
          <mxGeometry x="2389.15" y="-1014.98" width="39.53" height="48" as="geometry" />
        </mxCell>
        <mxCell id="PHRRr8yhrGrFgZKM-X4D-87" value="" style="image;aspect=fixed;html=1;points=[];align=center;fontSize=12;image=img/lib/azure2/networking/Network_Security_Groups.svg;" parent="PHRRr8yhrGrFgZKM-X4D-1" vertex="1">
          <mxGeometry x="2389.15" y="-836" width="39.53" height="48" as="geometry" />
        </mxCell>
        <mxCell id="PHRRr8yhrGrFgZKM-X4D-88" value="VM10" style="image;aspect=fixed;html=1;points=[];align=center;fontSize=12;image=img/lib/azure2/compute/Virtual_Machine.svg;spacing=0;labelBackgroundColor=none;" parent="PHRRr8yhrGrFgZKM-X4D-1" vertex="1">
          <mxGeometry x="2015" y="-907" width="65.76" height="61" as="geometry" />
        </mxCell>
        <mxCell id="PHRRr8yhrGrFgZKM-X4D-89" value="" style="edgeStyle=orthogonalEdgeStyle;rounded=0;orthogonalLoop=1;jettySize=auto;html=1;curved=1;startArrow=classic;startFill=1;strokeColor=#B3B3B3;strokeWidth=2;labelBackgroundColor=none;" parent="PHRRr8yhrGrFgZKM-X4D-1" source="PHRRr8yhrGrFgZKM-X4D-86" target="PHRRr8yhrGrFgZKM-X4D-87" edge="1">
          <mxGeometry relative="1" as="geometry">
            <Array as="points">
              <mxPoint x="2475" y="-997" />
              <mxPoint x="2475" y="-816" />
            </Array>
          </mxGeometry>
        </mxCell>
        <mxCell id="1K8vyOkMx8vhL-2WFBwF-2" value="&lt;font style=&quot;border-color: var(--border-color); color: rgb(179, 179, 179); font-size: 8px; font-weight: 700; background-color: rgb(251, 251, 251);&quot;&gt;Virtual Network Traffic&lt;br style=&quot;border-color: var(--border-color);&quot;&gt;&lt;span style=&quot;border-color: var(--border-color);&quot;&gt;secured with NSG Rules&lt;/span&gt;&lt;/font&gt;&lt;div style=&quot;border-color: var(--border-color); color: rgb(179, 179, 179); font-size: 8px; font-weight: 700; background-color: rgb(251, 251, 251);&quot;&gt;&lt;font style=&quot;border-color: var(--border-color);&quot;&gt;&lt;span style=&quot;border-color: var(--border-color);&quot;&gt;(inside Spoke)&lt;/span&gt;&lt;/font&gt;&lt;/div&gt;" style="edgeLabel;html=1;align=center;verticalAlign=middle;resizable=0;points=[];" parent="PHRRr8yhrGrFgZKM-X4D-89" vertex="1" connectable="0">
          <mxGeometry x="-0.2546" y="-4" relative="1" as="geometry">
            <mxPoint x="51" y="78" as="offset" />
          </mxGeometry>
        </mxCell>
        <mxCell id="Kp9qTo7Pf7anY4yTq4dl-0" value="" style="sketch=0;outlineConnect=0;fontColor=#232F3E;gradientColor=none;fillColor=#232F3D;strokeColor=none;dashed=0;verticalLabelPosition=bottom;verticalAlign=top;align=center;html=1;fontSize=12;fontStyle=0;aspect=fixed;pointerEvents=1;shape=mxgraph.aws4.office_building;" parent="PHRRr8yhrGrFgZKM-X4D-1" vertex="1">
          <mxGeometry x="74" y="-1088" width="50" height="78" as="geometry" />
        </mxCell>
      </root>
    </mxGraphModel>
  </diagram>
</mxfile>
